<svg version="1.1" xmlns="http://www.w3.org/2000/svg" width="32" height="32" viewBox="0 0 32 32"><path d="M23.424 31.424v0 0q-0.096 0-0.224-0.032t-0.16-0.128l-14.88-14.848q-0.064-0.096-0.096-0.192t-0.064-0.224 0.064-0.224 0.096-0.192l14.88-14.848q0.064-0.096 0.16-0.128t0.224-0.032q0.096 0 0.224 0.032t0.192 0.128v0q0.064 0.064 0.128 0.192t0.032 0.224q0 0.096-0.032 0.192t-0.128 0.192l-14.464 14.464 14.464 14.464q0.064 0.064 0.128 0.192t0.032 0.192q0 0.128-0.032 0.224t-0.128 0.192v0q-0.096 0.096-0.192 0.128t-0.224 0.032v0 0 0 0z"></path></svg>