<svg version="1.1" xmlns="http://www.w3.org/2000/svg" width="32" height="32" viewBox="0 0 32 32"><path d="M24.128 4.8q-1.696-1.664-3.776-2.528-2.112-0.8-4.288-0.8t-4.352 0.8q-2.112 0.864-3.84 2.528-1.536 1.504-2.368 3.392-0.8 1.856-0.928 3.872t0.448 4q0.64 1.984 1.952 3.712l9.024 11.424 9.024-11.424q1.312-1.728 1.952-3.712 0.576-2.016 0.448-4t-0.928-3.872q-0.832-1.888-2.368-3.392v0zM24.128 19.104v0l-8.128 10.272-8.128-10.272q-1.184-1.568-1.728-3.36t-0.416-3.584 0.896-3.52q0.768-1.664 2.176-3.040 1.504-1.504 3.392-2.272 1.888-0.736 3.872-0.736t3.84 0.736q1.92 0.768 3.424 2.272 1.376 1.376 2.112 3.040 0.736 1.728 0.864 3.52t-0.448 3.584q-0.544 1.792-1.728 3.36v0zM16 7.872q-2.208 0-3.744 1.568t-1.504 3.712q0 2.208 1.536 3.744t3.712 1.504q2.208 0 3.744-1.568t1.504-3.68v0 0q0-2.144-1.504-3.712t-3.744-1.568zM20.128 13.152q0 1.696-1.216 2.88t-2.912 1.216-2.912-1.216-1.216-2.88q0-1.728 1.216-2.912t2.912-1.216 2.912 1.248 1.216 2.88v0 0z"></path></svg>