<svg version="1.1" xmlns="http://www.w3.org/2000/svg" width="32" height="32" viewBox="0 0 32 32"><path d="M14.048 30.848v0 0q-0.16 0-0.288-0.064t-0.16-0.16h-0.032l-10.272-13.472q-0.032-0.096-0.064-0.16t-0.032-0.192q0-0.192 0.16-0.384t0.384-0.16q0.16 0 0.288 0.032t0.16 0.16v0l9.792 12.8 16.064-27.808q0.032-0.16 0.192-0.224t0.288-0.096q0.096 0 0.192 0.032t0.128 0.064v0q0.16 0.096 0.224 0.224t0.096 0.288q0 0.096-0.032 0.16l-0.064 0.096-16.512 28.576q-0.064 0.128-0.192 0.192t-0.256 0.096v0h-0.064z"></path></svg>