<svg version="1.1" xmlns="http://www.w3.org/2000/svg" width="32" height="32" viewBox="0 0 32 32"><path d="M31.328 8q-0.256-1.056-1.024-1.856t-1.76-1.088h-0.032q-0.96-0.256-3.008-0.416-2.080-0.096-4.16-0.192t-3.744-0.064h-3.2q-1.632 0-3.712 0.064t-4.192 0.192q-2.048 0.16-3.008 0.416-1.056 0.32-1.792 1.088t-0.992 1.824v0.032q-0.352 1.76-0.544 3.712t-0.16 4v0.576q0 2.016 0.192 4.032t0.544 3.968l-0.032-0.288q0.224 1.056 0.992 1.856t1.76 1.088h0.032q0.96 0.256 3.008 0.416 2.080 0.096 4.192 0.192t3.712 0.064h3.2q1.632 0 3.744-0.064t4.16-0.192q2.048-0.16 3.008-0.416 1.056-0.32 1.792-1.088t1.024-1.824v-0.032q0.32-1.76 0.512-3.712t0.16-4v-0.576q0-2.016-0.192-4.032t-0.512-3.968l0.032 0.288zM12.576 20.704v-9.44l8.32 4.736z"></path></svg>