<svg version="1.1" xmlns="http://www.w3.org/2000/svg" width="32" height="32" viewBox="0 0 32 32"><path d="M16 1.152v0 0q-3.104 0-5.824 1.152-2.688 1.152-4.704 3.168t-3.2 4.736q-1.152 2.72-1.152 5.792 0 2.336 0.704 4.512 0.672 2.112 1.92 3.904t2.976 3.168q1.728 1.408 3.744 2.24l0.128 0.032q-0.064-0.448-0.096-0.96t-0.064-0.992q0-0.608 0.064-1.216t0.16-1.184l-0.032 0.064q0.128-0.416 0.416-1.632t0.576-2.496 0.544-2.24l0.224-1.024q-0.224-0.448-0.32-0.992t-0.128-1.12v-0.064q0-1.536 0.8-2.56t1.888-1.024h0.032q0.768 0 1.344 0.544t0.544 1.28q0 0.064-0.032 0.128t0 0.128v0q-0.224 1.408-0.544 2.688t-0.736 2.432l0.064-0.192-0.064 0.256t-0.032 0.288q0 0.864 0.64 1.504t1.536 0.64h0.096q1.984 0 3.328-1.888t1.344-4.96v-0.128q0-2.464-1.696-4.16t-4.16-1.728h-0.576q-1.312 0-2.496 0.512-1.152 0.48-2.016 1.376t-1.376 2.016q-0.544 1.184-0.544 2.528v0 0q0.032 0.96 0.32 1.856t0.832 1.632v-0.032q0.064 0.064 0.096 0.128t0.032 0.16q0 0.032 0 0.064t-0.032 0.064v0q-0.096 0.352-0.224 0.96t-0.192 0.736-0.128 0.224-0.352-0.032q-1.376-0.64-2.208-2.368t-0.8-3.36q0-1.76 0.64-3.36t1.856-2.88 3.104-2.016q1.824-0.736 4.224-0.736 1.92 0 3.584 0.64 1.696 0.672 2.912 1.824t1.92 2.72 0.704 3.392q0 1.92-0.576 3.616t-1.6 2.944-2.432 1.952q-1.408 0.768-3.072 0.768h-0.16q-1.024 0-1.888-0.48t-1.376-1.248h-0.032l-0.384 1.504t-0.512 2.016q-0.384 1.12-0.832 2.112t-1.088 1.856l0.032-0.064q0.96 0.288 1.984 0.448t2.144 0.128q3.104 0 5.792-1.152 2.72-1.152 4.736-3.168t3.168-4.736q1.184-2.72 1.184-5.792t-1.152-5.76q-1.152-2.656-3.136-4.672t-4.64-3.2-5.728-1.216v0 0z"></path></svg>