<svg version="1.1" xmlns="http://www.w3.org/2000/svg" width="32" height="32" viewBox="0 0 32 32"><title>uniE92B</title><path d="M16 17.152q1.664 0 3.136-0.608t2.528-1.728 1.728-2.528q0.608-1.472 0.608-3.136 0-1.696-0.608-3.168-0.64-1.408-1.728-2.528t-2.528-1.664q-1.472-0.64-3.136-0.64t-3.136 0.64q-1.472 0.576-2.528 1.664t-1.696 2.528q-0.64 1.472-0.64 3.168 0 1.664 0.64 3.136 0.608 1.44 1.696 2.528t2.528 1.728 3.136 0.608zM16 2.272q1.408 0 2.656 0.544t2.176 1.472 1.472 2.176 0.544 2.688q0 1.408-0.544 2.656t-1.472 2.176-2.176 1.472-2.656 0.544-2.656-0.544-2.176-1.472-1.472-2.176-0.544-2.656q0-1.44 0.544-2.688t1.472-2.176 2.176-1.472 2.656-0.544zM26.272 22.144q-0.32-1.184-1.28-1.952t-2.144-0.768h-13.952q-1.184 0-2.112 0.768t-1.184 1.856l-2.080 9.152v0.448l0.128 0.128h24.576q0.288 0 0.448-0.16t0.128-0.416v-0.096l-2.528-8.96zM4.704 30.848l1.92-8.576q0.256-0.768 0.896-1.248t1.376-0.544h13.952q0.768 0.064 1.408 0.544t0.896 1.248l2.176 8.576h-22.624z"></path></svg>