<svg version="1.1" xmlns="http://www.w3.org/2000/svg" width="32" height="32" viewBox="0 0 32 32"><title>uniE91C</title><path d="M16 0.576q-3.232 0-6.016 1.216-2.816 1.184-4.928 3.264t-3.264 4.896q-1.216 2.816-1.216 6.048t1.216 6.016q1.184 2.816 3.264 4.928t4.928 3.264q2.784 1.216 6.016 1.216t6.048-1.216q2.784-1.184 4.896-3.264t3.264-4.928q1.216-2.784 1.216-6.016t-1.216-6.048q-1.184-2.784-3.264-4.896t-4.896-3.264q-2.816-1.216-6.048-1.216v0zM30.272 16q0 1.28-0.192 2.528-0.256 1.248-0.704 2.432t-1.056 2.272q-0.672 1.088-1.472 2.016l-20.896-19.392q2.080-2.080 4.736-3.104 2.624-1.024 5.376-1.024t5.376 1.056 4.704 3.136q1.024 1.024 1.792 2.176t1.28 2.464 0.8 2.656q0.256 1.376 0.256 2.784v0zM1.728 16q0-1.28 0.224-2.528t0.672-2.432 1.056-2.272q0.672-1.088 1.472-2.016l20.8 19.392q-2.112 2.080-4.736 3.104-2.656 1.024-5.376 1.024t-5.408-1.12q-2.624-1.056-4.704-3.232-0.96-0.96-1.696-2.112t-1.28-2.432-0.736-2.592q-0.288-1.376-0.288-2.784v0z"></path></svg>