<svg version="1.1" xmlns="http://www.w3.org/2000/svg" width="32" height="32" viewBox="0 0 32 32"><title>uniE92F</title><path d="M25.152 19.424q0 0.48-0.352 0.8t-0.8 0.352-0.8-0.352-0.352-0.8 0.352-0.8 0.8-0.352 0.8 0.352 0.352 0.8zM29.6 22.496q0.096-0.064 0.096-0.096t0.032-0.128v-18.272q0-0.704-0.512-1.216t-1.216-0.512v0 0h-8q-0.672 0-1.216 0.512t-0.512 1.216v16.896q-0.096-0.064-0.096-0.16t-0.096-0.256q-0.192-0.192-0.32-0.352t-0.384-0.256l-8.128-4.896-0.352-0.128h-7.52q-0.256 0-0.416 0.16t-0.16 0.416 0.16 0.416 0.416 0.16h7.328l8.096 4.896q0.064 0.096 0.16 0.192t0.192 0.16q0.064 0.192 0.16 0.416t0.192 0.384q0 0.352-0.032 0.704t-0.224 0.672q-0.096 0.352-0.32 0.608t-0.576 0.448q-0.256 0.064-0.448 0.064t-0.48-0.064l-5.696-2.976q-0.192-0.096-0.416-0.032t-0.416 0.256q-0.064 0.16 0 0.384t0.256 0.384l5.696 3.008q0.448 0.16 0.928 0.192t0.928-0.192q0.672-0.352 1.152-0.992t0.64-1.408v-0.128h2.176q1.408 0 2.976 0.032t2.944 0.128q1.408 0.064 2.112 0.16 0.32 0.448 0.64 0.896t0.512 1.056q0 0.608-0.416 1.088t-0.96 0.64l-1.376 0.224q-1.152 0.192-3.296 0.64-2.112 0.416-4.256 0.832t-3.744 0.736q-1.664 0.32-1.856 0.32-1.44 0-2.784-0.576t-2.464-1.632l-4.704-4.544h-2.624q-0.256 0-0.416 0.16t-0.16 0.384q0 0.288 0.16 0.448t0.416 0.16h2.144l4.352 4.224q1.216 1.184 2.784 1.792t3.2 0.608q0.064 0 0.672-0.128 0.608-0.096 2.112-0.384t4.096-0.8q2.56-0.512 6.592-1.312l1.376-0.256q1.024-0.16 1.696-0.992t0.704-1.856q-0.192-0.672-0.576-1.344t-0.928-1.184v0zM28.576 22.048q-0.768-0.096-1.984-0.128-1.184-0.064-2.496-0.128t-2.56-0.032q-1.248-0.032-2.112-0.032v-17.728q0-0.256 0.16-0.416t0.416-0.16h1.952q-0.16 0.064-0.192 0.192t-0.032 0.256q0 0.288 0.16 0.448t0.384 0.16h3.456q0.256 0 0.384-0.16t0.16-0.448q0-0.064-0.064-0.224t-0.128-0.224h1.92q0.16 0 0.352 0.16t0.224 0.416v18.048z"></path></svg>