<svg version="1.1" xmlns="http://www.w3.org/2000/svg" width="32" height="32" viewBox="0 0 32 32"><path d="M29.216 26.784l-8-8q0.864-1.248 1.376-2.752t0.48-3.168q0-2.144-0.832-4.032-0.8-1.888-2.208-3.296t-3.296-2.24q-1.92-0.8-4.032-0.8-2.176 0-4.064 0.8-1.888 0.832-3.296 2.24t-2.208 3.296q-0.832 1.888-0.832 4.032t0.832 4.032q0.8 1.92 2.208 3.328t3.296 2.208q1.888 0.832 4.064 0.832v0 0 0q1.728 0 3.296-0.576t2.848-1.472h-0.032l8 8q0.256 0.256 0.576 0.384t0.672 0.16q0.704 0 1.216-0.512t0.512-1.216q0-0.384-0.16-0.704t-0.384-0.544v0h-0.032zM12.704 19.744h-0.064q-1.44 0-2.72-0.512-1.28-0.576-2.24-1.536t-1.504-2.24-0.544-2.72q0-1.472 0.544-2.752t1.504-2.208 2.24-1.504 2.72-0.544q1.44 0 2.752 0.544t2.208 1.504 1.504 2.208q0.544 1.28 0.544 2.752v0 0 0.032q0 1.44-0.512 2.688-0.576 1.28-1.536 2.24t-2.208 1.536q-1.28 0.512-2.688 0.512v0 0z"></path></svg>