<svg version="1.1" xmlns="http://www.w3.org/2000/svg" width="32" height="32" viewBox="0 0 32 32"><path d="M28.8 27.2l-8.32-8.416q0.896-1.216 1.44-2.752t0.512-3.2q0-2.016-0.736-3.808-0.8-1.76-2.112-3.104t-3.104-2.112q-1.792-0.736-3.808-0.736t-3.84 0.736q-1.76 0.8-3.104 2.112t-2.112 3.104q-0.736 1.792-0.736 3.808t0.736 3.808q0.8 1.792 2.112 3.136t3.104 2.112q1.792 0.736 3.84 0.736v0h0.032q1.728 0 3.328-0.608t2.848-1.6v0.032l8.32 8.352q0.16 0.16 0.352 0.256t0.448 0.096 0.448-0.096 0.352-0.256v0q0.16-0.128 0.256-0.352t0.096-0.448-0.096-0.448-0.256-0.352v0 0zM12.704 20.32h-0.064q-1.568 0-2.944-0.608t-2.4-1.632-1.632-2.4-0.608-2.976q0-1.536 0.608-2.912t1.632-2.432 2.4-1.6 2.944-0.608q1.568 0 2.944 0.608t2.432 1.6 1.6 2.432 0.608 2.912v0 0.032q0 1.568-0.608 2.944t-1.6 2.4-2.4 1.632-2.912 0.64v0-0.032z"></path></svg>