<svg version="1.1" xmlns="http://www.w3.org/2000/svg" width="32" height="32" viewBox="0 0 32 32"><path d="M12 14.848h8q1.184 0 2.016-0.832t0.832-2.016v-8q0-1.184-0.832-2.016t-2.016-0.832h-8q-1.184 0-2.016 0.832t-0.832 2.016v8q0 1.184 0.832 2.016t2.016 0.832zM10.272 4q0-0.704 0.512-1.216t1.216-0.512h3.424v2.304q0 0.256 0.16 0.416t0.416 0.16 0.416-0.16 0.16-0.416v-2.304h3.424q0.704 0 1.216 0.512t0.512 1.216v8q0 0.672-0.512 1.216t-1.216 0.512h-8q-0.672 0-1.216-0.512t-0.512-1.216v-8zM12 17.152h-8q-1.184 0-2.016 0.832t-0.832 2.016v8q0 1.184 0.832 2.016t2.016 0.832h8q1.184 0 2.016-0.832t0.832-2.016v-8q0-1.184-0.832-2.016t-2.016-0.832zM13.728 28q0 0.704-0.512 1.216t-1.216 0.512h-8q-0.672 0-1.216-0.512t-0.512-1.216v-8q0-0.704 0.512-1.216t1.216-0.512h3.424v2.304q0 0.256 0.16 0.416t0.416 0.16 0.416-0.16 0.16-0.416v-2.304h3.424q0.704 0 1.216 0.512t0.512 1.216v8zM28 17.152h-8q-1.184 0-2.016 0.832t-0.832 2.016v8q0 1.184 0.832 2.016t2.016 0.832h8q1.184 0 2.016-0.832t0.832-2.016v-8q0-1.184-0.832-2.016t-2.016-0.832zM29.728 28q0 0.704-0.512 1.216t-1.216 0.512h-8q-0.672 0-1.216-0.512t-0.512-1.216v-8q0-0.704 0.512-1.216t1.216-0.512h3.424v2.304q0 0.256 0.16 0.416t0.416 0.16 0.416-0.16 0.16-0.416v-2.304h3.424q0.704 0 1.216 0.512t0.512 1.216v8z"></path></svg>