<svg version="1.1" xmlns="http://www.w3.org/2000/svg" width="32" height="32" viewBox="0 0 32 32"><path d="M12.704 1.152h-9.28q-0.928 0-1.6 0.672t-0.672 1.6v9.248q0 0.96 0.672 1.632t1.6 0.672h9.28q0.928 0 1.6-0.672t0.672-1.632v-9.248q0-0.928-0.672-1.6t-1.6-0.672zM28.576 1.152h-9.248q-0.96 0-1.632 0.672t-0.672 1.6v9.248q0 0.96 0.672 1.632t1.632 0.672h9.248q0.928 0 1.6-0.672t0.672-1.632v-9.248q0-0.928-0.672-1.6t-1.6-0.672v0zM12.704 17.024h-9.28q-0.928 0-1.6 0.672t-0.672 1.6v9.28q0 0.928 0.672 1.6t1.6 0.672h9.28q0.928 0 1.6-0.672t0.672-1.6v-9.28q0-0.928-0.672-1.6t-1.6-0.672zM28.576 17.024h-9.248q-0.96 0-1.632 0.672t-0.672 1.6v9.28q0 0.928 0.672 1.6t1.632 0.672h9.248q0.928 0 1.6-0.672t0.672-1.6v-9.28q0-0.928-0.672-1.6t-1.6-0.672v0z"></path></svg>