<svg version="1.1" xmlns="http://www.w3.org/2000/svg" width="32" height="32" viewBox="0 0 32 32"><title>uniE91F</title><path d="M29.152 10.272h-5.152q0-1.952-0.736-3.84t-2.112-3.328q-1.024-1.056-2.368-1.536t-2.784-0.416q-1.76 0.032-3.232 0.736-1.408 0.64-2.464 1.856t-1.664 2.848q-0.608 1.696-0.64 3.68h-5.152q-1.184 0-2.016 0.832t-0.832 2.048v16q0 1.184 0.832 2.016t2.016 0.832h26.304q1.184 0 2.016-0.832t0.832-2.016v-16q0-1.216-0.832-2.048t-2.016-0.832v0zM16 2.272q1.184-0.096 2.336 0.32t2.016 1.28q1.184 1.28 1.824 2.944t0.672 3.456h-13.696q0.032-1.76 0.544-3.232t1.376-2.496 2.144-1.632q1.248-0.576 2.784-0.64zM30.848 29.152q0 0.704-0.512 1.184t-1.184 0.512h-26.304q-0.704 0-1.184-0.512t-0.512-1.184v-16q0-0.672 0.512-1.216t1.184-0.512h26.304q0.704 0 1.184 0.512t0.512 1.216v16zM18.496 18.048q-0.16-0.16-0.384-0.16t-0.384 0.16l-1.728 1.728-1.728-1.728q-0.16-0.16-0.384-0.16t-0.384 0.16q-0.192 0.16-0.192 0.416t0.192 0.384l1.696 1.728-1.696 1.696q-0.192 0.192-0.192 0.416t0.192 0.416q0.064 0.064 0.16 0.096t0.192 0.096q0.064 0 0.192-0.064t0.224-0.128l1.728-1.728 1.728 1.728q0.096 0.064 0.192 0.096t0.224 0.096q0.096 0 0.224-0.064t0.128-0.128q0.192-0.192 0.192-0.416t-0.192-0.416l-1.696-1.696 1.696-1.728q0.192-0.16 0.192-0.384t-0.192-0.416zM16 14.272q-1.28 0-2.432 0.512-1.12 0.48-1.984 1.344t-1.376 2.016q-0.48 1.12-0.48 2.432t0.48 2.432 1.376 1.984 1.984 1.344q1.152 0.512 2.432 0.512t2.432-0.512q1.12-0.48 1.984-1.344t1.376-1.984 0.48-2.432-0.48-2.432q-0.512-1.152-1.376-2.016t-1.984-1.344q-1.152-0.512-2.432-0.512v0zM16 25.728q-2.144 0-3.648-1.504t-1.504-3.648 1.504-3.648 3.648-1.504 3.648 1.504 1.504 3.648-1.504 3.648-3.648 1.504z"></path></svg>