<svg version="1.1" xmlns="http://www.w3.org/2000/svg" width="32" height="32" viewBox="0 0 32 32"><title>uniE90F</title><path d="M28.224 2.272h-24.448q-0.608 0-1.056 0.448t-0.448 1.056v0 24.448q0 0.608 0.448 1.056t1.056 0.448h13.152v-10.624h-3.552v-4.128h3.552v-3.072q0-2.656 1.472-4.064t3.84-1.408v0h1.6q0.416 0 0.832 0.032t0.768 0.096v3.712h-2.752q-0.896 0.16-1.184 0.672t-0.288 1.312v2.656h4.128l-0.544 4.16h-3.616v10.656h7.040q0.608 0 1.056-0.448t0.448-1.056v0-24.448q0-0.608-0.448-1.056t-1.056-0.448v0 0z"></path></svg>