<svg version="1.1" xmlns="http://www.w3.org/2000/svg" width="32" height="32" viewBox="0 0 32 32"><path d="M5.248 6.144q2.048-1.856 4.512-2.848 2.496-0.992 5.088-1.056t5.152 0.832q2.528 0.832 4.704 2.656h-4.704q-0.256 0-0.416 0.16t-0.16 0.384 0.16 0.416 0.416 0.16h5.728q0.256 0 0.384-0.16t0.16-0.416v-5.696q0-0.256-0.16-0.416t-0.384-0.16-0.416 0.16-0.16 0.416v4q-2.304-1.792-5.024-2.656-2.688-0.832-5.44-0.704t-5.408 1.12q-2.624 1.056-4.8 3.040-1.792 1.664-2.848 3.776-1.088 2.112-1.44 4.352t0.032 4.576q0.416 2.336 1.632 4.416 0.064 0.192 0.16 0.256t0.256 0.096q0.096 0 0.256-0.064t0.224-0.16q0.16-0.16 0.128-0.288t-0.128-0.416q-1.12-1.92-1.472-4.032-0.384-2.144-0.032-4.224t1.376-4q0.992-1.952 2.624-3.52v0zM29.024 9.376q-0.096-0.192-0.352-0.192t-0.448 0.064q-0.16 0.096-0.224 0.32t0 0.352q1.12 1.952 1.504 4.064 0.384 2.176 0.032 4.256t-1.344 4.032q-1.024 1.952-2.688 3.456-2.080 1.856-4.576 2.88-2.496 0.96-5.088 1.024t-5.12-0.768-4.64-2.592h4.672q0.256 0 0.416-0.16t0.16-0.384-0.096-0.416-0.384-0.16h-5.696q-0.288 0-0.416 0.16t-0.16 0.416v5.696q0 0.256 0.16 0.416t0.416 0.16 0.416-0.16 0.16-0.416v-4q2.304 1.792 4.992 2.656 2.72 0.832 5.472 0.704t5.376-1.12q2.656-1.056 4.832-3.040 1.76-1.664 2.848-3.776 1.056-2.112 1.44-4.384t-0.064-4.608-1.6-4.48v0zM8.48 18.4q-0.64 0-1.12-0.256t-0.96-0.64l-0.8 0.768q0.512 0.608 1.184 0.928t1.44 0.32h0.352q1.024 0 1.824-0.576t0.928-1.696q0-0.736-0.384-1.248t-0.864-0.704q0.416-0.224 0.704-0.704t0.32-0.992q0-0.96-0.672-1.568t-1.856-0.608q-0.768-0.096-1.44 0.224t-1.184 0.928l0.8 0.8q0.256-0.448 0.704-0.672t1.024-0.224q0.48 0 0.8 0.288t0.32 0.832q0 0.512-0.32 0.832t-0.8 0.32h-0.832v1.12h0.832q0.736 0 1.152 0.384t0.448 0.896q0 0.512-0.448 0.864t-1.152 0.384v0zM15.424 11.424l-2.272 3.552q-0.352 0.416-0.512 0.864t-0.16 0.96q0 1.184 0.832 2.016t2.016 0.832 2.016-0.832 0.8-2.016q0-1.12-0.736-1.888t-1.888-0.864q-0.128 0-0.32 0.032t-0.352 0.064l1.856-2.72h-1.28zM15.328 15.2q0.672 0 1.184 0.48t0.512 1.216q0 0.608-0.448 1.088t-1.152 0.512-1.184-0.448-0.512-1.152 0.448-1.184 1.152-0.512v0zM22.848 11.296q-1.344 0-2.368 1.12t-1.056 3.008q0 1.888 1.056 3.008t2.368 1.088q1.376 0 2.4-1.088t1.024-3.008q0-1.888-1.024-3.008t-2.4-1.12v0zM22.848 18.4q-0.832 0-1.504-0.768t-0.64-2.208q0-1.472 0.64-2.208t1.504-0.736 1.536 0.736 0.64 2.208q0 1.44-0.64 2.208t-1.536 0.768z"></path></svg>