<svg version="1.1" xmlns="http://www.w3.org/2000/svg" width="32" height="32" viewBox="0 0 32 32"><title>uniE92A</title><path d="M28.896 22.4q-1.312-0.128-2.656-0.224-1.312-0.096-2.624-0.128t-2.688-0.096q-1.312-0.032-2.656-0.032-0.096-0.32-0.192-0.64t-0.352-0.608q-0.192-0.16-0.352-0.32t-0.352-0.224l-8.128-4.928q-0.064 0-0.096-0.064t-0.096-0.032h-7.104q-0.256 0-0.416 0.16t-0.16 0.384 0.16 0.416 0.416 0.16h6.88l8.096 4.928q0.096 0.064 0.16 0.16t0.16 0.192q0.192 0.256 0.288 0.544t0.064 0.576v0.352q-0.096 0.512-0.416 0.96t-0.704 0.736q-0.288 0.096-0.48 0.096t-0.448-0.096l-5.696-2.944q-0.192-0.096-0.416-0.032t-0.384 0.224q-0.096 0.192-0.032 0.416t0.224 0.416l5.728 2.976q0.256 0.096 0.512 0.16t0.512 0.032 0.448-0.032 0.48-0.16q0.672-0.352 1.152-0.992t0.672-1.44v-0.096q0.736 0 2.176 0.032 1.408 0 2.944 0.032t2.944 0.064q1.408 0.064 2.112 0.192 0.32 0.448 0.64 0.96t0.512 1.024q0 0.576-0.384 1.088t-0.992 0.608l-1.376 0.224q-3.168 0.608-5.6 1.088-2.4 0.448-4.064 0.768t-2.56 0.512q-0.896 0.16-1.024 0.16-1.472 0-2.848-0.576t-2.4-1.6l-4.608-4.352q-0.064-0.096-0.16-0.096t-0.192-0.032h-1.792q-0.256 0-0.416 0.16t-0.16 0.416q0 0.288 0.16 0.448t0.416 0.16h1.6l4.32 4.096q1.184 1.216 2.784 1.792t3.296 0.608q0.16 0 2.528-0.448t11.072-2.176l1.248-0.224q1.024-0.192 1.632-1.024t0.64-1.856q-0.16-0.832-0.672-1.6t-1.28-1.248v0zM21.728 6.048q-1.728 0-2.976 1.248t-1.248 2.976 1.248 2.976 2.976 1.248 2.976-1.248 1.248-2.976-1.248-2.976-2.976-1.248v0zM21.728 13.376q-1.28 0-2.208-0.896t-0.896-2.208 0.896-2.176 2.208-0.896 2.176 0.896 0.896 2.176-0.896 2.208-2.176 0.896zM29.504 7.776h-0.256l-0.16-0.512t-0.192-0.416l0.128-0.224q0.352-0.448 0.352-0.96t-0.352-0.992l-1.504-1.568q-0.384-0.352-0.928-0.352t-0.992 0.352l-0.224 0.096q-0.256-0.16-0.576-0.256t-0.576-0.192v-0.256q-0.064-0.512-0.48-0.928t-0.992-0.416h-2.176q-0.512 0.064-0.896 0.416t-0.48 0.928v0.256q-0.256 0.096-0.48 0.16t-0.448 0.192l-0.192-0.128q-0.448-0.352-0.992-0.352t-0.96 0.352l-1.632 1.504q-0.352 0.384-0.352 0.928t0.352 0.992l0.128 0.224q-0.16 0.256-0.256 0.576t-0.224 0.576h-0.192q-0.512 0-0.96 0.384t-0.416 0.992v2.144q0 0.544 0.384 0.928t0.992 0.448h0.192l0.192 0.512t0.16 0.416l-0.096 0.256q-0.32 0.384-0.32 0.928t0.32 0.992l1.472 1.6q0.448 0.352 0.992 0.352t0.992-0.224l0.224-0.128q0.224 0.16 0.576 0.288t0.672 0.256v0.224q0 0.64 0.384 1.024t0.992 0.352h2.144q0.544-0.064 0.928-0.384t0.448-0.992v-0.224l0.512-0.16t0.416-0.16l0.224 0.128q0.448 0.32 0.96 0.32t0.992-0.32l1.568-1.504q0.352-0.416 0.384-0.96t-0.256-0.992l-0.128-0.224q0.192-0.224 0.32-0.576t0.288-0.672h0.224q0.576-0.096 0.992-0.48t0.384-1.024v-2.144q-0.256-0.544-0.64-0.928t-0.96-0.448v0zM29.728 11.296q-0.096 0.096-0.192 0.16t-0.16 0.064l-0.576 0.128q-0.16 0-0.256 0.16t-0.192 0.32q-0.096 0.416-0.288 0.832t-0.416 0.768q-0.096 0.16-0.096 0.288t0.096 0.256l0.352 0.48q0.096 0.096 0.096 0.192t0.032 0.256l-1.632 1.472q-0.064 0-0.192 0t-0.224-0.096l-0.48-0.352q-0.16-0.064-0.32-0.064t-0.256 0.064q-0.32 0.192-0.672 0.352t-0.704 0.224q-0.16 0.064-0.256 0.192t-0.192 0.256l-0.096 0.608q0 0.064-0.096 0.16t-0.16 0.128h-2.272q-0.064-0.064-0.16-0.16t-0.064-0.128l-0.128-0.608q0-0.16-0.16-0.256t-0.288-0.192q-0.416-0.096-0.864-0.256t-0.768-0.416q-0.064 0-0.128-0.064l-0.064-0.064q-0.096 0-0.192 0t-0.16 0.128l-0.448 0.448q-0.096 0.064-0.192 0.096t-0.256 0l-1.504-1.568q0-0.096 0-0.256t0.128-0.224l0.32-0.48q0.096-0.16 0.096-0.288t-0.096-0.256q-0.16-0.352-0.32-0.704t-0.224-0.672q-0.096-0.16-0.192-0.288t-0.288-0.16l-0.544-0.128q-0.096 0-0.192-0.064t-0.16-0.288v-2.144l0.16-0.16t0.192-0.096l0.544-0.096q0.192 0 0.288-0.128t0.192-0.192q0.064-0.448 0.224-0.8t0.448-0.704q0.064-0.16 0.064-0.32t-0.064-0.256l-0.352-0.672q-0.064-0.096-0.096-0.192t0-0.288l1.568-1.472q0.096 0 0.256 0.032t0.224 0.064l0.48 0.352q0.16 0.096 0.288 0.096t0.256-0.096l0.704-0.32t0.672-0.256q0.16-0.096 0.288-0.192t0.16-0.256l0.128-0.576q0-0.096 0.064-0.16t0.16-0.192h2.176q0.096 0.096 0.16 0.192t0.064 0.16l0.128 0.576q0 0.16 0.128 0.256t0.288 0.192q0.448 0.096 0.864 0.288t0.768 0.416q0.16 0.096 0.32 0.096t0.256-0.096l0.544-0.352q0.096-0.096 0.192-0.096t0.288-0.032l1.472 1.632q0 0.064-0.032 0.192t-0.064 0.224l-0.352 0.48q-0.096 0.16-0.096 0.32t0.096 0.256l0.32 0.672t0.256 0.704q0.096 0.16 0.192 0.256t0.256 0.064l0.576 0.128q0.16 0.064 0.256 0.16t0.096 0.192v2.144z"></path></svg>