<svg version="1.1" xmlns="http://www.w3.org/2000/svg" width="32" height="32" viewBox="0 0 32 32"><path d="M16 17.248q0.256 0 0.416-0.16t0.16-0.416v-7.072q0-0.256-0.16-0.416t-0.416-0.16-0.416 0.16-0.16 0.416v7.072q0 0.256 0.16 0.416t0.416 0.16zM16.128 19.52h-0.064t0.064 0q-0.704 0-1.12 0.416t-0.512 0.96q0 0.608 0.384 1.024t0.992 0.48h0.128q0.608 0 0.992-0.384t0.512-0.992q0-0.576-0.384-1.056t-0.992-0.448v0zM16 0.576q-3.232 0-6.016 1.216-2.816 1.184-4.928 3.264t-3.264 4.896q-1.216 2.816-1.216 6.048t1.216 6.016q1.184 2.816 3.264 4.928t4.928 3.264q2.784 1.216 6.016 1.216t6.048-1.216q2.784-1.184 4.896-3.264t3.264-4.928q1.216-2.784 1.216-6.016t-1.216-6.048q-1.184-2.784-3.264-4.896t-4.896-3.264q-2.816-1.216-6.048-1.216v0zM16 30.272q-2.976 0-5.568-1.12t-4.512-3.072-3.072-4.512-1.12-5.568 1.12-5.568 3.072-4.512 4.512-3.072 5.568-1.12 5.568 1.12 4.512 3.072 3.072 4.512 1.12 5.568-1.12 5.568-3.072 4.512-4.512 3.072-5.568 1.12z"></path></svg>