<svg version="1.1" xmlns="http://www.w3.org/2000/svg" width="32" height="32" viewBox="0 0 32 32"><path d="M13.504 4.224q0.352-0.16 1.664-0.896l1.312-0.704 2.944 1.728h0.224q0.096 0 0.192-0.032t0.288-0.192q0.064-0.192 0.032-0.352t-0.288-0.352l-3.168-1.824q-0.096-0.096-0.192-0.096t-0.16 0.096l-3.2 1.696q-0.288 0.192-0.352 0.384t0 0.32q0.064 0.096 0.096 0.16t0.128 0.064q0.096 0.096 0.256 0.096t0.224-0.096v0zM29.504 8l-3.776-1.952q-0.192-0.096-0.448 0t-0.384 0.224q-0.064 0.192-0.064 0.384t0.192 0.32l2.848 1.376-2.72 1.376q-0.192 0.16-0.256 0.32t0 0.448q0.096 0.288 0.352 0.352t0.48 0l2.848-1.472v2.624q0 0.256 0.16 0.416t0.416 0.16 0.416-0.16 0.16-0.416v-3.648q0-0.192-0.128-0.288l-0.096-0.064zM7.104 6.272q-0.096-0.16-0.384-0.224t-0.448 0l-3.776 1.952q-0.064 0.096-0.128 0.16t-0.096 0.192v3.648q0 0.256 0.16 0.416t0.416 0.16q0.288 0 0.448-0.16t0.128-0.416v-2.624l2.848 1.472q0.256 0.096 0.48 0t0.352-0.352q0.064-0.256 0-0.448t-0.256-0.32l-2.72-1.376 2.848-1.376q0.192-0.096 0.192-0.32t-0.064-0.384v0zM16 16v3.2q0 0.256 0.16 0.416t0.416 0.16 0.416-0.16 0.16-0.416v-3.2l2.848-1.6q0.16-0.096 0.224-0.32t0-0.352q-0.16-0.192-0.352-0.256t-0.448 0.032l-2.848 1.6-2.848-1.6q-0.192-0.096-0.448-0.032t-0.384 0.256q-0.064 0.16-0.064 0.32t0.192 0.352l2.976 1.6zM19.424 28.704l-2.272 1.248v-2.528q0-0.256-0.16-0.416t-0.416-0.16-0.416 0.16-0.16 0.416v2.528l-2.272-1.248q-0.192-0.096-0.448-0.032t-0.384 0.224q-0.064 0.192 0 0.48t0.256 0.352l2.976 1.6q0.064 0.064 0.224 0.096t0.224 0h0.224l0.128-0.064t0.224-0.16q0.064-0.064 1.44-0.832t1.632-0.992v-0.064t0.128-0.064q0.096-0.16 0.096-0.288t-0.096-0.384q-0.256-0.064-0.512-0.032t-0.416 0.16v0zM29.248 20.128q-0.256 0-0.416 0.128t-0.128 0.32v2.528l-2.56 1.568q-0.128 0.096-0.192 0.32t0.128 0.512q0.064 0.064 0.16 0.128t0.256 0.096q0.096 0 0.16-0.032t0.192-0.096l1.28-0.896t1.376-0.928q0.064-0.096 0.128-0.192t0.096-0.288v-2.72q0-0.16-0.16-0.32t-0.32-0.128v0zM3.424 22.976v-2.496q-0.064-0.192-0.192-0.288t-0.384-0.064q-0.256 0-0.416 0.128t-0.16 0.32v3.072q0 0.096 0.032 0.128t0.096 0.096l2.752 1.728q0.064 0.096 0.16 0.096t0.192 0.032q0.16 0 0.256-0.096t0.192-0.128q0.16-0.192 0.16-0.448t-0.16-0.384l-2.528-1.696z"></path></svg>