<svg version="1.1" xmlns="http://www.w3.org/2000/svg" width="32" height="32" viewBox="0 0 32 32"><path d="M0.576 3.424h3.776q0.256 0 0.384-0.128t0.16-0.32v-0.128q0-0.256-0.128-0.416t-0.288-0.16h-3.776q-0.256 0-0.416 0.16t-0.16 0.32v0 0.096q0 0.288 0.128 0.416t0.32 0.16v0zM30.4 2.272h-14.976q-0.256 0-0.416 0.16t-0.16 0.32v0 0.096q0 0.288 0.16 0.416t0.32 0.16v0h14.944q0.256 0 0.416-0.128t0.16-0.32v-0.128q0-0.256-0.128-0.416t-0.32-0.16v0zM30.272 14.848h-3.648q-0.256 0-0.416 0.16t-0.128 0.416q0 0.256 0.128 0.416t0.416 0.16h3.648q0.256 0 0.416-0.16t0.16-0.416-0.16-0.416-0.416-0.16zM0.704 16h14.816q0.288 0 0.448-0.16t0.16-0.416-0.16-0.416-0.448-0.16h-14.816q-0.256 0-0.416 0.16t-0.16 0.416 0.16 0.416 0.416 0.16v0zM4.352 27.424h-3.648q-0.256 0-0.416 0.16t-0.16 0.416 0.16 0.416 0.416 0.16h3.648q0.256 0 0.384-0.16t0.16-0.416-0.16-0.416-0.384-0.16v0zM30.272 27.424h-14.848q-0.256 0-0.416 0.16t-0.16 0.416 0.16 0.416 0.416 0.16h14.848q0.256 0 0.416-0.16t0.16-0.416-0.16-0.416-0.416-0.16v0zM11.424 2.848q0 0.704-0.48 1.216t-1.216 0.512-1.216-0.512-0.512-1.216q0-0.704 0.512-1.184t1.216-0.512 1.216 0.512 0.48 1.184v0zM11.424 28q0 0.736-0.48 1.216t-1.216 0.512-1.216-0.512-0.512-1.216 0.512-1.216 1.216-0.512 1.216 0.512 0.48 1.216v0zM22.848 15.424q0 0.704-0.512 1.216t-1.184 0.512q-0.704 0-1.216-0.512t-0.512-1.216 0.512-1.216 1.216-0.48q0.704 0 1.184 0.48t0.512 1.216v0z"></path></svg>