<svg version="1.1" xmlns="http://www.w3.org/2000/svg" width="32" height="32" viewBox="0 0 32 32"><path d="M30.976 0.672h-4.48q-0.16 0-0.384 0.16t-0.256 0.32l-1.728 6.72-1.984 9.28q-0.224 0.768-0.864 1.248t-1.408 0.576h-13.792q-0.8-0.096-1.408-0.576t-0.896-1.248l-2.272-9.152q-0.096-0.256-0.256-0.384t-0.448-0.096q-0.32 0.096-0.384 0.288t-0.064 0.416l2.272 9.152q0.352 1.12 1.28 1.888t2.176 0.736h13.792q1.216 0 2.144-0.736t1.184-1.888l2.048-9.152 1.6-6.368h4.128q0.256 0 0.416-0.192t0.128-0.416-0.128-0.416-0.416-0.16v0zM18.496 22.272q-1.856 0-3.2 1.344t-1.344 3.232 1.344 3.232 3.2 1.344q1.92 0 3.264-1.344t1.344-3.232-1.312-3.232-3.296-1.344v0zM18.496 30.272q-1.44 0-2.432-0.96t-0.96-2.464q0-1.44 0.96-2.432t2.432-0.992 2.464 0.992 0.992 2.432q0 1.472-0.992 2.464t-2.464 0.96v0zM5.952 22.272q-1.888 0-3.232 1.344t-1.344 3.232 1.344 3.232 3.232 1.344 3.232-1.344 1.312-3.232q0-1.888-1.28-3.232t-3.264-1.344zM5.952 30.272q-1.44 0-2.464-0.96t-0.992-2.464q0-1.44 0.992-2.432t2.464-0.992q1.44 0 2.432 0.992t0.992 2.432q0 1.472-0.992 2.464t-2.432 0.96z"></path></svg>