<svg version="1.1" xmlns="http://www.w3.org/2000/svg" width="32" height="32" viewBox="0 0 32 32"><title>uniE90E</title><path d="M29.344 4.576h-26.688q-1.12 0.064-1.888 0.896t-0.768 1.92v17.184q0 1.184 0.832 2.016t2.016 0.832v0h26.304q1.152 0 2.016-0.832t0.832-2.016v0-17.184q0-1.12-0.768-1.92t-1.888-0.896v0 0zM16 14.080l-11.424-8.352h22.848zM30.848 24.576q0 0.704-0.512 1.216t-1.184 0.48v0h-26.304q-0.704 0-1.184-0.48t-0.512-1.216v0-17.184q0-0.64 0.416-1.12t1.024-0.544h0.032l13.024 9.504q0.064 0.032 0.16 0.064t0.16 0 0.16 0 0.128-0.064v0l13.12-9.504q0.64 0.096 1.056 0.544t0.416 1.12v17.184z"></path></svg>