<svg version="1.1" xmlns="http://www.w3.org/2000/svg" width="32" height="32" viewBox="0 0 32 32"><path d="M16.576 1.152h-1.152q-2.944 0-5.536 1.088-2.592 1.12-4.544 3.072t-3.104 4.576q-1.088 2.592-1.088 5.536v0 1.152q0 2.944 1.088 5.536 1.152 2.592 3.104 4.544t4.544 3.104q2.592 1.088 5.536 1.088v0h1.152q2.944 0 5.536-1.088 2.624-1.12 4.576-3.104t3.072-4.544q1.088-2.592 1.088-5.536v0-1.152q0-2.944-1.088-5.536-1.12-2.624-3.072-4.576t-4.576-3.072q-2.592-1.088-5.536-1.088v0 0zM23.424 12.224v0.48q0 2.272-0.864 4.224-0.832 1.984-2.304 3.456t-3.456 2.304q-1.952 0.864-4.192 0.864-1.632 0-3.136-0.448t-2.752-1.28l0.032 0.032q0.096 0 0.224 0t0.256 0.032q0.096 0 0.192-0.032t0.256 0v0q1.344 0 2.56-0.448t2.176-1.184h-0.032q-1.248 0-2.24-0.736t-1.344-1.856v0q0.16 0.032 0.352 0.032t0.352 0.032q0.288 0 0.544-0.064t0.48-0.096h-0.032q-1.312-0.256-2.176-1.312t-0.864-2.4v0 0 0q0.384 0.16 0.8 0.288t0.864 0.128h0.032q-0.768-0.512-1.216-1.344t-0.448-1.792v-0.064q0-0.544 0.128-1.024t0.384-0.896v0.032q1.408 1.728 3.424 2.784t4.384 1.184h0.032q-0.032-0.192-0.064-0.416t-0.032-0.448v0 0 0q0-1.568 1.12-2.688t2.688-1.12q0.832 0 1.536 0.32t1.248 0.896v0q0.704-0.16 1.312-0.384t1.152-0.608l-0.032 0.032q-0.224 0.704-0.672 1.216t-0.992 0.896v0.032q0.576-0.064 1.152-0.224t1.088-0.352h-0.064q-0.416 0.576-0.864 1.056t-1.024 0.864v0.032h0.032z"></path></svg>