<svg version="1.1" xmlns="http://www.w3.org/2000/svg" width="32" height="32" viewBox="0 0 32 32"><path d="M30.496 2.048q-0.352-0.416-0.864-0.672t-1.056-0.224h-19.424q-1.216 0-2.144 0.768t-1.152 1.952l-0.704 3.424q-0.096 0.192 0.032 0.416t0.32 0.288v0h0.096q0.256 0.096 0.416-0.064t0.256-0.416l0.704-3.392q0.192-0.8 0.8-1.312t1.376-0.544h19.424q0.256 0 0.576 0.128t0.448 0.352q0.192 0.256 0.256 0.544t0 0.576l-0.704 3.424q-0.096 0.256 0.064 0.448t0.384 0.256h0.128q0.16 0 0.32-0.128t0.224-0.352l0.704-3.392q0.192-0.544 0.032-1.088t-0.512-0.992v0zM26.496 25.152q-0.256-0.096-0.448 0.064t-0.192 0.384l-0.704 3.424q-0.192 0.8-0.8 1.312t-1.376 0.512h-19.552q-0.256 0-0.576-0.096t-0.448-0.352q-0.192-0.256-0.256-0.576t0-0.576l0.704-3.392q0.096-0.288-0.064-0.48t-0.384-0.224q-0.256-0.096-0.416 0.064t-0.256 0.384l-0.704 3.424q-0.256 0.96 0.288 1.824t1.44 1.024q0.16 0.096 0.32 0.128t0.352 0h19.424q1.216 0 2.144-0.768t1.152-1.984l0.704-3.392q0.096-0.192-0.032-0.416t-0.32-0.288v0zM9.728 16.576q0 0.256 0.16 0.416t0.384 0.16h11.808l-3.584 3.648q-0.16 0.16-0.16 0.416t0.16 0.384q0.096 0.096 0.192 0.096t0.16 0.032q0.096 0 0.224-0.096t0.256-0.128l4.544-4.608q0.192-0.16 0.192-0.384t-0.192-0.384l-4.544-4.608q-0.16-0.16-0.416-0.16t-0.416 0.16q-0.16 0.192-0.16 0.416t0.16 0.416l3.584 3.648h-11.808q-0.224 0-0.384 0.16t-0.16 0.416v0z"></path></svg>