<svg width="281" height="96" viewBox="0 0 281 96" fill="none" xmlns="http://www.w3.org/2000/svg">
<g clip-path="url(#clip0)">
<path d="M258.9 57H250.6V33.6H258.9V26.9H250.5C246.8 26.9 243.9 29.9 243.9 33.6V57.2C243.9 60.9 246.9 63.8 250.5 63.8H258.9V57Z" fill="#E1251B"/>
<path d="M265.6 33.6H273.9V57H265.6V63.7H274C277.7 63.7 280.6 60.7 280.6 57.1V33.5C280.6 29.8 277.6 26.8 274 26.8H265.6V33.6Z" fill="#E1251B"/>
<path d="M29.9 52.2C28.7 47.6 24.9 44.7 20.1 44.7C15.5 44.7 11.8 47.6 10.4 52.2H29.9ZM10.2 60.5C11.5 65.3 15.3 68.3 20.1 68.3C23.5 68.3 26.7 66.8 28.4 63.7H39.2C36.9 71.7 30 77.2 20.2 77.2C9.1 77.2 0 68 0 56.6C0 45.2 9.1 35.9 20.2 35.9C31.8 35.9 41.4 44.9 40 60.5H10.2Z" fill="#E1251B"/>
<path d="M79.5 76.2H69.4V53.2C69.4 50.9 68.7 45.4 62.1 45.4C57.6 45.4 54.5 48.8 54.5 53.2V76.2H44.3V36.9H53.9V40.7C56.4 37.7 59.9 35.9 64.1 35.9C73.3 35.9 79.5 42.9 79.5 53.2V76.2Z" fill="#E1251B"/>
<path d="M110.8 45.4C105.2 45.4 100.7 50.3 100.7 56.7C100.7 63 105.2 67.8 110.8 67.8C116.4 67.8 120.9 62.8 120.9 56.7C120.9 50.4 116.4 45.4 110.8 45.4ZM131 74.3C131 87.4 123.2 95.5 110.6 95.5C101.2 95.5 93 90.1 91.5 81.7H102.6C103.9 84.8 107.9 86.1 110.6 86.1C117.7 86.1 120.9 81.4 120.9 74.4V72.5C117.8 75.4 113.9 77.1 109.3 77.1C99.1 77.1 90.6 68.2 90.6 56.6C90.5 44.9 99 36 109.3 36C114.1 36 118.2 37.8 121.4 41V36.8H131V74.3Z" fill="#E1251B"/>
<path d="M159.2 45.9C155.2 45.4 151.8 45.9 149.5 48.3C147.4 50.5 147 53.7 147 56.9V76.2H136.9V36.9H146.5V40.8C149.7 36.8 154.4 35.4 159.2 36.1V45.9Z" fill="#E1251B"/>
<path d="M188.8 56.7C188.8 49.9 184.4 45.2 179.1 45.2C173.8 45.2 169.4 49.9 169.4 56.7C169.4 63.3 173.8 67.9 179.1 67.9C184.4 67.9 188.8 63.3 188.8 56.7ZM199 56.6C199 68.4 190.1 77.2 179.1 77.2C168.2 77.2 159.3 68.4 159.3 56.6C159.3 44.8 168.2 35.9 179.1 35.9C190 35.9 199 44.8 199 56.6Z" fill="#E1251B"/>
<path d="M220.2 51.5C215.3 50.7 212.4 50 212.4 48C212.4 46.5 214.3 44.9 219 44.9C222.7 44.9 225 46.4 225.6 48.2H236.1C234.8 40.8 228.1 35.9 219 35.9C207.6 35.9 202.2 42.3 202.2 48.5C202.2 57.3 211.6 59.2 218.6 60.3C225.5 61.4 226.9 62.3 226.9 64.5C226.9 66.8 223.8 68 219.8 68C216.9 68 213 66.8 211.5 63.7H201.2C202.6 72 209.9 77.2 219.8 77.2C229.9 77.2 237.1 71.7 237.1 63.9C237.1 55.3 230 53.1 220.2 51.5Z" fill="#E1251B"/>
<path d="M17.7 9.9C14.7 9.9 12.3 12.6 12.3 15.9C12.3 19.2 14.7 21.8 17.7 21.8C20.7 21.8 23.1 19.2 23.1 15.9C23.1 12.5 20.7 9.9 17.7 9.9ZM18.5 26.8C16 26.8 13.7 25.8 12.1 24.1V26.3H6.90002V0H12.3V7.4C13.9 5.8 16.1 5 18.5 5C24 5 28.5 9.7 28.5 16C28.5 22.1 24 26.8 18.5 26.8Z" fill="#E1251B"/>
<path d="M49.4 26.4H44.3V24.5C43 26 41.2 26.9 39 26.9C34 26.9 30.7 23.2 30.7 17.7V5.39999H36.1V17.7C36.1 18.9 36.5 21.8 40 21.8C42.4 21.8 44.1 20 44.1 17.7V5.39999H49.5V26.4H49.4Z" fill="#E1251B"/>
<path d="M64.5 10.2C62.3 10 60.5 10.2 59.3 11.5C58.2 12.7 58 14.4 58 16.1V26.4H52.6V5.4H57.7V7.5C59.5 5.3 62 4.6 64.5 5V10.2Z" fill="#E1251B"/>
<path d="M80.5 13.6C79.8 11.2 77.8 9.59999 75.2 9.59999C72.8 9.59999 70.8 11.1 70 13.6H80.5ZM70 18C70.7 20.6 72.7 22.2 75.3 22.2C77.1 22.2 78.8 21.4 79.7 19.8H85.5C84.3 24.1 80.6 27 75.3 27C69.4 27 64.5 22.1 64.5 16C64.5 9.89999 69.4 4.89999 75.3 4.89999C81.5 4.89999 86.6 9.69999 85.9 18H70Z" fill="#E1251B"/>
<path d="M131 26.4H125.9V24.5C124.6 26 122.8 26.9 120.6 26.9C115.6 26.9 112.3 23.2 112.3 17.7V5.39999H117.7V17.7C117.7 18.9 118.1 21.8 121.6 21.8C124 21.8 125.7 20 125.7 17.7V5.39999H131.1V26.4H131Z" fill="#E1251B"/>
<path d="M98.2 21.8C101.2 21.8 103.6 19.1 103.6 15.9C103.6 12.6 101.2 9.89999 98.2 9.89999C95.2 9.89999 92.8 12.5 92.8 15.9C92.8 19.3 95.2 21.8 98.2 21.8ZM97.4 4.89999C99.8 4.89999 102 5.79999 103.6 7.39999V5.39999H109V26.4H103.8V24.2C102.2 25.9 99.9 26.9 97.4 26.9C91.9 26.9 87.4 22.2 87.4 16C87.4 9.69999 91.9 4.89999 97.4 4.89999Z" fill="#E1251B"/>
</g>
<defs>
<clipPath id="clip0">
<rect width="280.7" height="95.5" fill="white"/>
</clipPath>
</defs>
</svg>
