<svg version="1.1" xmlns="http://www.w3.org/2000/svg" width="32" height="32" viewBox="0 0 32 32"><title>uniE91D</title><path d="M26.848 3.424h-5.12v-1.696q0-0.256-0.16-0.416t-0.416-0.16q-0.288 0-0.416 0.16t-0.16 0.416v1.696h-10.304v-1.696q0-0.256-0.16-0.416t-0.384-0.16-0.416 0.16-0.16 0.416v1.696h-5.152q-1.184 0-2.016 0.832t-0.832 2.016v22.88q0 1.184 0.832 2.016t2.016 0.832h22.848q1.216 0 2.048-0.832t0.832-2.016v-22.88q0-1.184-0.832-2.016t-2.048-0.832v0zM28.576 29.152q0 0.704-0.512 1.184t-1.216 0.512h-22.848q-0.672 0-1.216-0.512t-0.512-1.184v-22.88q0-0.672 0.512-1.184t1.216-0.512h5.152v1.696q0 0.256 0.16 0.416t0.416 0.16 0.384-0.16 0.16-0.416v-1.696h10.304v1.696q0 0.256 0.16 0.416t0.416 0.16 0.416-0.16 0.16-0.416v-1.696h5.12q0.672 0 1.216 0.512t0.512 1.184v22.88zM12.704 15.296q0-0.832 0.704-1.472t2.016-0.672q0.864 0 1.6 0.32t1.248 0.928l0.928-0.896q-0.608-0.704-1.44-1.12t-1.76-0.512v-1.824h-1.248v1.824q-1.376 0.096-2.368 1.088t-1.056 2.336q0 1.728 1.088 2.432t2.368 1.056 2.4 0.832 1.088 1.632q0 1.024-0.736 1.728t-2.208 0.672q-1.056 0-1.92-0.384t-1.536-1.216l-0.768 0.928q0.672 0.864 1.664 1.344t2.080 0.48v1.824h1.152v-1.824q1.472 0 2.496-1.024t1.024-2.528v0q0.064-1.728-0.992-2.4t-2.368-1.088-2.368-0.832-1.088-1.632v0z"></path></svg>