<svg version="1.1" xmlns="http://www.w3.org/2000/svg" width="32" height="32" viewBox="0 0 32 32"><title>uniE92E</title><path d="M21.952 9.504v0 0q-0.256-0.192-0.512-0.128t-0.288 0.352v0 0l-6.528 11.296-3.776-5.024q-0.16-0.16-0.384-0.224t-0.384 0.096q-0.192 0.192-0.256 0.416t0.128 0.384l4.32 5.728q0.096 0.096 0.192 0.16t0.288 0.064q0.16 0 0.256-0.064t0.192-0.16l6.944-12.128q0.096-0.16 0.064-0.384t-0.256-0.384v0zM16 0.576q-3.232 0-6.016 1.216-2.816 1.184-4.928 3.264t-3.264 4.896q-1.216 2.816-1.216 6.048t1.216 6.016q1.184 2.816 3.264 4.928t4.928 3.264q2.784 1.216 6.016 1.216t6.048-1.216q2.784-1.184 4.896-3.264t3.264-4.928q1.216-2.784 1.216-6.016t-1.216-6.048q-1.184-2.784-3.264-4.896t-4.896-3.264q-2.816-1.216-6.048-1.216v0zM16 30.272q-2.976 0-5.568-1.12t-4.512-3.072-3.072-4.512-1.12-5.568 1.12-5.568 3.072-4.512 4.512-3.072 5.568-1.12 5.568 1.12 4.512 3.072 3.072 4.512 1.12 5.568-1.12 5.568-3.072 4.512-4.512 3.072-5.568 1.12z"></path></svg>