<svg version="1.1" xmlns="http://www.w3.org/2000/svg" width="32" height="32" viewBox="0 0 32 32"><path d="M30.848 1.152h-4.576q-0.16 0-0.288 0.128t-0.256 0.32l-1.6 6.4h-23.552q-0.256 0-0.416 0.16t-0.16 0.416v0.096l2.272 9.184q0.256 1.184 1.248 1.952t2.208 0.768h13.92q1.184 0 2.144-0.768t1.184-1.888l2.048-9.12 1.728-6.528h4.096q0.288 0 0.448-0.16t0.128-0.384-0.128-0.416-0.448-0.16v0zM21.952 17.6q-0.256 0.768-0.896 1.248t-1.408 0.576h-13.92q-0.8-0.096-1.408-0.576t-0.896-1.248l-2.176-8.448h22.528zM18.272 22.848q-1.856 0-3.2 1.344t-1.344 3.232 1.344 3.232 3.2 1.344 3.232-1.344 1.344-3.232q0-1.888-1.344-3.232t-3.232-1.344v0zM18.272 30.848q-1.44 0-2.432-0.992t-0.992-2.432q0-1.472 0.992-2.432t2.432-0.992q1.472 0 2.464 0.992t0.992 2.432-0.992 2.432-2.464 0.992v0zM5.728 22.848q-1.888 0-3.232 1.344t-1.344 3.232 1.344 3.232 3.232 1.344 3.2-1.344 1.344-3.232q0-1.888-1.344-3.232t-3.2-1.344v0zM5.728 30.848q-1.472 0-2.464-0.992t-0.992-2.432q0-1.472 0.992-2.432t2.464-0.992q1.44 0 2.432 0.992t0.992 2.432-0.992 2.432-2.432 0.992v0z"></path></svg>