<svg version="1.1" xmlns="http://www.w3.org/2000/svg" width="32" height="32" viewBox="0 0 32 32"><title>uniE90D</title><path d="M18.080 12.352v0l-2.976 3.648-1.152-1.728q-0.16-0.256-0.416-0.224t-0.384 0.096q-0.192 0.192-0.256 0.384t0.128 0.448l1.6 2.272q0.096 0.096 0.192 0.16t0.288 0.096q0.16 0 0.256-0.096t0.16-0.16l3.456-4.352q0.192-0.256 0.16-0.416t-0.288-0.352q-0.16-0.096-0.352-0.064t-0.416 0.288v0zM16 8.576q-1.28 0-2.432 0.48-1.12 0.512-1.984 1.376t-1.376 2.016q-0.48 1.12-0.48 2.4 0 1.312 0.48 2.432 0.512 1.152 1.376 2.016t1.984 1.344q1.152 0.512 2.432 0.512t2.432-0.512q1.12-0.48 1.984-1.344t1.376-2.016q0.48-1.12 0.48-2.432 0-1.28-0.48-2.4-0.512-1.184-1.376-2.016t-1.984-1.376q-1.152-0.48-2.432-0.48v0zM16 20q-2.144 0-3.648-1.504t-1.504-3.648 1.504-3.616 3.648-1.504 3.648 1.504 1.504 3.616q0 2.144-1.504 3.648t-3.648 1.504zM31.52 14.848l-2.496-6.048q-0.32-0.608-0.928-0.992t-1.248-0.384h-4.576q-0.32 0-0.672-0.192t-0.576-0.48l-1.504-2.624q-0.32-0.64-0.896-0.96t-1.248-0.32h-15.648q-0.704 0-1.216 0.512t-0.512 1.216v19.424q0 0.672 0.512 1.216t1.216 0.512h1.12q0.288 1.632 1.568 2.592t2.912 0.832q1.28-0.192 2.208-1.12t1.216-2.304h10.624q0.256 1.632 1.536 2.592t2.944 0.832q1.28-0.192 2.208-1.12t1.184-2.304h1.152q0.704 0 1.216-0.512t0.512-1.216v-6.624q-0.096-0.704-0.256-1.312t-0.352-1.216v0zM6.752 28q-1.216 0-2.048-0.832t-0.832-2.016q0-1.216 0.832-2.048t2.048-0.832q1.184 0 2.016 0.832t0.832 2.048q0 1.184-0.832 2.016t-2.016 0.832zM25.248 28q-1.184 0-2.016-0.832t-0.832-2.016q0-1.216 0.832-2.048t2.016-0.832q1.216 0 2.048 0.832t0.832 2.048q0 1.184-0.832 2.016t-2.048 0.832zM30.848 24q0 0.256-0.16 0.416t-0.416 0.16h-1.12q-0.288-1.632-1.568-2.624t-2.88-0.8q-1.312 0.16-2.24 1.088t-1.216 2.336h-10.496q-0.256-1.632-1.536-2.624t-2.944-0.8q-1.28 0.16-2.208 1.088t-1.216 2.336h-1.12q-0.256 0-0.416-0.16t-0.16-0.416v-19.424q0-0.256 0.16-0.416t0.416-0.16h15.648q0.352 0 0.672 0.224t0.576 0.448l1.504 2.624q0.352 0.608 0.896 0.928t1.248 0.352h4.576q0.352 0 0.608 0.192t0.416 0.48l2.528 6.048q0.16 0.544 0.32 0.992t0.128 0.96v6.752z"></path></svg>