<svg version="1.1" xmlns="http://www.w3.org/2000/svg" width="32" height="32" viewBox="0 0 32 32"><path d="M16 24v0 0q-0.128 0-0.224-0.064t-0.192-0.096l-14.848-14.88q-0.064-0.064-0.128-0.16t-0.032-0.224q0-0.096 0.032-0.224t0.128-0.192v0q0.064-0.064 0.192-0.128t0.224-0.032q0.096 0 0.224 0.032t0.16 0.128l14.464 14.464 14.464-14.464q0.064-0.064 0.192-0.128t0.192-0.032q0.256 0 0.416 0.16t0.16 0.416q0 0.096-0.032 0.224t-0.128 0.16v0l-14.848 14.88q-0.096 0.064-0.192 0.096t-0.224 0.064v0 0 0 0z"></path></svg>