<svg version="1.1" xmlns="http://www.w3.org/2000/svg" width="32" height="32" viewBox="0 0 32 32"><title>uniE90B</title><path d="M25.024 4q-0.256-0.16-0.416-0.16t-0.384 0.16q-0.16 0.16-0.16 0.384t0.16 0.416q0.288 0.256 0.768 0.704l0.512 0.416q0.416 0.256 0.608 0.064t0.288-0.256q0.096-0.192 0.096-0.384t-0.224-0.32q-0.16-0.192-0.512-0.48t-0.736-0.544v0zM21.856 2.4l-0.672-0.192t-1.056-0.288q-0.288-0.064-0.448 0t-0.256 0.352q-0.064 0.256 0 0.416t0.352 0.288l0.896 0.288t1.056 0.256q0.16 0 0.256-0.064t0.16-0.256q0.096-0.256 0.032-0.48t-0.32-0.32v0zM21.6 28.576q-0.16 0-0.832 0.192t-1.12 0.384q-0.256 0.064-0.32 0.256t0 0.544q0.064 0.224 0.256 0.32t0.416 0q0.16-0.096 0.832-0.256t1.024-0.288q0.224-0.096 0.288-0.192l0.128-0.288q0-0.16-0.064-0.32t-0.128-0.224-0.16-0.128-0.32 0v0zM25.376 25.92q-0.352 0.256-0.64 0.544t-0.608 0.512q-0.288 0.192-0.288 0.352t0.032 0.448l0.096 0.128t0.256 0.096q0.096 0 0.256 0t0.32-0.128q0.352-0.256 0.704-0.512t0.64-0.608q0.192-0.192 0.192-0.384t-0.192-0.32q-0.224-0.224-0.416-0.224t-0.352 0.096v0zM30.4 14.848q0.16 0 0.32-0.16t0.128-0.416l-0.128-0.608t-0.224-0.992q-0.064-0.224-0.224-0.352t-0.416-0.096q-0.352 0.096-0.416 0.256t-0.064 0.416q0.096 0.448 0.224 1.024l0.128 0.576q0.096 0.288 0.288 0.32t0.384 0.032v0zM30.4 17.024q-0.256-0.096-0.416 0.064t-0.256 0.416q-0.096 0.416-0.192 0.832t-0.16 0.864q0 0.256 0.032 0.384t0.192 0.192l0.128 0.064t0.224 0.032q0.224 0 0.352-0.096t0.192-0.48q0.096-0.416 0.192-0.768t0.16-0.8q0-0.352-0.128-0.48t-0.32-0.224v0zM29.024 21.92q-0.192-0.064-0.384-0.032t-0.416 0.256q-0.16 0.352-0.384 0.704t-0.416 0.672q-0.16 0.288-0.16 0.448t0.256 0.384q0.288 0.16 0.512 0.064t0.32-0.192q0.256-0.352 0.48-0.704t0.416-0.768q0.192-0.352 0.064-0.544t-0.288-0.288v0zM28.224 9.856q0.096 0.128 0.192 0.224t0.288 0.064h0.16t0.288-0.096q0.16-0.16 0.128-0.352l-0.128-0.448q-0.192-0.352-0.448-0.768t-0.352-0.608q-0.192-0.16-0.352-0.224t-0.48 0.128q-0.224 0.16-0.192 0.352t0.096 0.448q0.16 0.32 0.416 0.64t0.384 0.64v0zM16.576 29.728h-0.928q-2.816-0.128-5.28-1.312-2.432-1.184-4.192-3.136t-2.784-4.512q-0.96-2.528-0.896-5.344 0.16-2.656 1.216-4.992t2.848-4.096 4.16-2.848q2.336-1.088 5.056-1.216h0.8q0.256 0 0.416-0.128t0.16-0.288v-0.128q0-0.192-0.16-0.384t-0.416-0.192h-0.928q-3.008 0-5.664 1.12-2.624 1.152-4.576 3.136t-3.040 4.704q-1.12 2.688-1.12 5.76 0 3.104 1.12 5.824 1.088 2.72 3.040 4.768t4.64 3.232q2.656 1.152 5.728 1.152h1.024q0.256 0 0.416-0.128t0.16-0.448-0.192-0.448-0.608-0.096v0zM16.48 10.848q0.832 0 1.6 0.32t1.344 0.96l0.928-0.928q-0.608-0.704-1.44-1.12t-1.76-0.48v-1.824h-1.28v1.824q-1.376 0.096-2.368 1.056t-1.024 2.368q0 1.728 1.056 2.4 1.088 0.704 2.4 1.088t2.4 0.832 1.088 1.632q0 1.024-0.736 1.696t-2.208 0.704q-1.056 0-1.952-0.416t-1.504-1.184l-0.8 0.896q0.672 0.864 1.664 1.344t2.112 0.48v1.856h1.152v-1.856q1.44 0 2.496-1.024t1.056-2.496q0-1.728-1.12-2.4t-2.368-1.088-2.4-0.832-1.088-1.632q0-0.864 0.704-1.536t2.048-0.64v0z"></path></svg>