<svg version="1.1" xmlns="http://www.w3.org/2000/svg" width="32" height="32" viewBox="0 0 32 32"><path d="M28.48 27.52l-9.056-8.896q1.312-1.408 1.856-3.168 0.608-1.696 0.48-3.488t-0.896-3.392q-0.768-1.696-2.24-2.976t-3.2-1.856q-1.728-0.544-3.488-0.448t-3.392 0.96-2.944 2.24q-1.28 1.472-1.856 3.232-0.544 1.696-0.416 3.456t0.928 3.392 2.24 2.848q1.344 1.184 2.912 1.728 1.6 0.608 3.232 0.608t3.2-0.608q1.568-0.544 2.912-1.728l8.896 8.928q0.096 0.096 0.192 0.096t0.288 0.032q0.064 0 0.224-0.064t0.224-0.064q0-0.096-0.032-0.352t-0.064-0.48v0 0 0zM12.576 20.672q-1.664 0-3.136-0.608t-2.56-1.696-1.696-2.56-0.608-3.136 0.608-3.104q0.64-1.472 1.696-2.56t2.56-1.696 3.136-0.64q1.664 0 3.104 0.64 1.472 0.608 2.56 1.696t1.696 2.56q0.64 1.44 0.64 3.104t-0.64 3.136-1.696 2.56-2.56 1.696q-1.44 0.608-3.104 0.608v0z"></path></svg>