<svg version="1.1" xmlns="http://www.w3.org/2000/svg" width="32" height="32" viewBox="0 0 32 32"><title>uniE92C</title><path d="M31.52 12.48q-0.064-0.544-0.512-0.864t-0.928-0.32h-9.728l-3.104-9.248q-0.16-0.32-0.448-0.576t-0.672-0.32h-0.256q-0.416 0.064-0.672 0.32t-0.448 0.576l-3.104 9.248h-9.568q-0.544 0-0.992 0.32t-0.512 0.864q-0.064 0.384 0.128 0.8t0.544 0.768l7.776 5.728-0.448 1.44t-1.024 3.2-1.024 3.2-0.448 1.536q-0.096 0.416 0 0.832t0.416 0.768q0.288 0.096 0.544 0.16t0.48 0.064q0.352 0 0.64-0.128l0.32-0.096 7.648-5.6 7.648 5.6 0.224 0.096q0.352 0.192 0.8 0.16t0.8-0.256 0.48-0.704 0.064-0.896l-2.944-9.28 1.184-0.832q1.184-0.896 2.624-1.92t2.72-1.952 1.376-1.024q0.256-0.16 0.384-0.704t0.032-0.96v0z"></path></svg>