<svg version="1.1" xmlns="http://www.w3.org/2000/svg" width="32" height="32" viewBox="0 0 32 32"><path d="M29.152 10.272h-5.152q0-2.080-0.768-3.936t-2.080-3.264v0q-0.928-0.928-2.176-1.44t-2.592-0.512h-0.224t-0.192 0.032h0.032q-1.792 0.032-3.232 0.736-1.44 0.64-2.496 1.856t-1.632 2.848q-0.608 1.696-0.64 3.68h-5.152q-1.152 0-2.016 0.864t-0.832 2.016v0 16q0 1.152 0.832 2.016t2.016 0.832v0h26.304q1.152 0 2.016-0.832t0.832-2.016v0-16q0-1.184-0.832-2.016t-2.016-0.864v0 0zM16 2.272h0.32q1.184 0 2.208 0.416t1.824 1.184v0q1.152 1.28 1.824 2.912t0.672 3.488v0h-13.696q0.032-1.76 0.544-3.232t1.376-2.496 2.144-1.632 2.784-0.64v0zM30.848 29.152q0 0.704-0.512 1.184t-1.184 0.512v0h-26.304q-0.704 0-1.184-0.512t-0.512-1.184v0-16q0-0.704 0.512-1.216t1.184-0.512v0h26.304q0.704 0 1.184 0.512t0.512 1.216v0 16z"></path></svg>