<svg version="1.1" xmlns="http://www.w3.org/2000/svg" width="32" height="32" viewBox="0 0 32 32"><path d="M32 20v-14.848q0-1.216-0.832-2.048t-2.016-0.832h-5.376q-0.192-0.768-0.864-1.248t-1.408-0.448q-0.768-0.064-1.44 0.384t-0.864 1.312h-6.048q-1.216 0-2.048 0.832t-0.832 2.048v10.496l-1.024-0.544-0.352-0.256h-7.52q-0.256 0-0.416 0.16t-0.16 0.416 0.16 0.416 0.416 0.16h7.328l8.096 4.896q0.064 0.096 0.16 0.192t0.192 0.16q0.064 0.192 0.16 0.416t0.192 0.384q0 0.352-0.032 0.704t-0.224 0.672q-0.096 0.352-0.32 0.608t-0.576 0.448q-0.256 0.064-0.448 0.064t-0.48-0.064l-5.696-2.976q-0.192-0.096-0.416-0.032t-0.416 0.256q-0.064 0.16 0 0.384t0.256 0.384l5.696 3.008q0.448 0.16 0.928 0.192t0.928-0.192q0.672-0.352 1.152-0.992t0.64-1.408v-0.128h2.176q1.408 0 2.976 0.032t2.944 0.128q1.408 0.064 2.112 0.16 0.32 0.448 0.64 0.896t0.512 1.056q0 0.608-0.416 1.088t-0.96 0.64l-1.376 0.224q-1.152 0.192-3.296 0.64-2.112 0.416-4.256 0.832t-3.744 0.736q-1.664 0.32-1.856 0.32-1.44 0-2.784-0.576t-2.464-1.632l-4.704-4.544h-2.624q-0.256 0-0.416 0.16t-0.16 0.384q0 0.288 0.16 0.448t0.416 0.16h2.144l4.352 4.224q1.216 1.184 2.784 1.792t3.2 0.608q0.064 0 0.672-0.128 0.608-0.096 2.112-0.384t4.096-0.8q2.56-0.512 6.592-1.312l1.376-0.256q1.024-0.16 1.696-0.992t0.704-1.856q-0.192-0.672-0.512-1.28t-0.736-1.12q0.928-0.16 1.536-0.928t0.608-1.696v0zM21.376 1.728v0q0.352-0.096 0.672 0.064t0.448 0.48h-2.144q0.16-0.256 0.448-0.384t0.576-0.16v0zM30.848 20q0 0.672-0.512 1.216t-1.184 0.512h-10.656q-0.064-0.352-0.16-0.608t-0.256-0.544q-0.192-0.16-0.32-0.32t-0.384-0.256l-5.952-3.648v-11.2q0-0.672 0.544-1.216t1.184-0.512h9.472v4.448q0.096 0.64-0.288 1.088t-0.96 0.544q-0.608-0.096-0.96-0.544t-0.288-1.088v-1.952q0-0.224-0.16-0.384t-0.448-0.16q-0.224 0-0.384 0.16t-0.16 0.384v1.952q-0.096 1.024 0.64 1.856t1.76 0.896q1.024-0.096 1.76-0.864t0.64-1.888v-4.448h5.376q0.704 0 1.184 0.512t0.512 1.216v14.848zM24.576 12.576h-6.848q-0.256 0-0.416 0.128t-0.16 0.448q0 0.256 0.16 0.416t0.416 0.16h6.848q0.256 0 0.416-0.16t0.16-0.416q0-0.288-0.16-0.448t-0.416-0.128v0zM24.576 16h-6.848q-0.256 0-0.416 0.16t-0.16 0.416 0.16 0.416 0.416 0.16h6.848q0.256 0 0.416-0.16t0.16-0.416-0.16-0.416-0.416-0.16v0z"></path></svg>