<svg version="1.1" xmlns="http://www.w3.org/2000/svg" width="32" height="32" viewBox="0 0 32 32"><title>uniE92D</title><path d="M8.896 19.776l-7.744-5.728q-0.352-0.224-0.48-0.704t-0.096-0.864q0.096-0.544 0.48-0.864t0.896-0.32h9.568l3.104-9.248q0.192-0.32 0.512-0.608t0.736-0.288h0.128q0.448 0.064 0.704 0.32t0.448 0.576l3.072 9.248h9.728q0.512 0 0.864 0.32t0.512 0.864q0.16 0.384 0.032 0.8t-0.512 0.768l-7.872 5.728 2.976 9.248q0.096 0.448-0.064 0.864t-0.512 0.736q-0.352 0.256-0.768 0.32t-0.832-0.192l-0.256-0.128-7.52-5.6-7.648 5.6-0.32 0.096t-0.608 0.128q-0.256 0-0.448-0.096t-0.48-0.256q-0.352-0.256-0.48-0.64t-0.064-0.832zM16 23.52l8.224 6.080q0.096 0.096 0.224 0.096t0.256 0.032 0.192-0.16 0-0.32l-3.168-9.952 8.416-6.144q0.096-0.096 0.128-0.192t0-0.16v0q0-0.096-0.064-0.16t-0.256-0.064h-10.528l-3.296-9.952q0-0.096-0.064-0.16t-0.192-0.064q-0.064 0-0.128 0.064t-0.096 0.16l-3.168 9.952h-10.4q-0.096 0-0.288 0.032t-0.192 0.192q0 0.256 0.032 0.32t0.224 0.128l8.416 6.048-3.168 9.856q-0.096 0.16-0.096 0.32t0.096 0.256q0.064 0.096 0.16 0.096t0.256-0.096l0.352-0.224 8.128-5.984z"></path></svg>