<svg version="1.1" xmlns="http://www.w3.org/2000/svg" width="32" height="32" viewBox="0 0 32 32"><title>uniE91E</title><path d="M30.752 1.376q-0.096-0.096-0.224-0.16t-0.256-0.064h-7.072q-0.256 0-0.416 0.16t-0.16 0.416 0.128 0.384 0.352 0.16h5.696l-8.448 8.576q-0.192 0.192-0.192 0.416t0.192 0.384q0.096 0.096 0.192 0.128t0.256 0q0.064 0 0.224-0.064t0.224-0.064l8.48-8.544v5.696q0 0.256 0.16 0.416t0.384 0.16 0.416-0.16 0.16-0.416v-7.264t-0.096-0.16v0zM30.272 17.856q-0.224 0-0.384 0.128t-0.16 0.416v11.328h-27.456v-27.456h11.328q0.256 0 0.416-0.16t0.128-0.384-0.128-0.416-0.416-0.16h-11.872q-0.256 0-0.416 0.16t-0.16 0.416v28.544q0 0.256 0.16 0.416t0.416 0.16h28.544q0.256 0 0.416-0.16t0.16-0.416v-11.872q0-0.256-0.16-0.416t-0.416-0.128v0z"></path></svg>