<svg version="1.1" xmlns="http://www.w3.org/2000/svg" width="32" height="32" viewBox="0 0 32 32"><path d="M26.848 16.224q-0.512-0.352-1.088-0.448t-1.184-0.128q-0.16 0-0.352 0.032t-0.352 0.096v-10.624q0.096-1.216-0.704-2.048t-2.016-0.832h-16q-1.216 0-2.048 0.832t-0.832 2.048v19.424q0 1.216 0.832 2.016t2.048 0.832h10.976q0.352 0.256 0.608 0.544t0.64 0.608q0.768 0.576 1.344 1.088t0.928 0.736q0.8 0.608 1.12 0.832t0.48 0.192h0.128q0.16 0 0.448-0.192t1.024-0.832q0.352-0.256 0.928-0.736t1.376-1.088q1.184-0.96 2.24-2.048t1.856-2.304q1.024-2.144 0.352-4.416t-2.752-3.584v0zM5.152 26.4q-0.672-0.096-1.184-0.608t-0.544-1.216v-19.424q0-0.672 0.544-1.216t1.184-0.512h16q0.704 0 1.184 0.512t0.512 1.216v11.072q-0.416 0.352-0.832 0.64t-0.768 0.736q-0.736-0.704-1.6-1.312t-1.792-0.64q-0.64 0-1.216 0.16t-1.12 0.416q-1.952 1.28-2.624 3.584t0.352 4.416q0.352 0.608 0.8 1.12t0.928 1.056h-9.824zM28.128 23.776q-0.768 1.088-1.728 2.112t-2.048 1.888q-0.704 0.608-1.312 1.056t-0.896 0.672q-0.224 0.16-0.512 0.384t-0.384 0.256q-0.096 0.096-0.288-0.096t-0.608-0.544-0.96-0.736-1.248-0.992q-1.088-0.864-2.048-1.888t-1.696-2.112q-0.864-1.728-0.32-3.616t2.144-3.008q0.352-0.288 0.8-0.384t0.928-0.096q0.576 0 1.312 0.576t1.312 1.152l0.672 0.704 0.704-0.704q0.576-0.576 1.312-1.152t1.312-0.576q0.416 0 0.832 0.096t0.864 0.384q1.728 0.992 2.272 2.912t-0.416 3.712v0zM6.272 9.152h9.152q0.256 0 0.416-0.16t0.16-0.416-0.16-0.416-0.416-0.16h-9.152q-0.224 0-0.384 0.16t-0.16 0.416 0.16 0.416 0.384 0.16v0zM19.424 12q0-0.256-0.128-0.416t-0.448-0.16h-12.576q-0.224 0-0.384 0.16t-0.16 0.416 0.16 0.416 0.384 0.16h12.576q0.288 0 0.448-0.16t0.128-0.416v0z"></path></svg>