<svg version="1.1" xmlns="http://www.w3.org/2000/svg" width="32" height="32" viewBox="0 0 32 32"><path d="M16.576 11.104h-3.424v-3.456q-0.096-0.256-0.256-0.384t-0.416-0.064q-0.192 0-0.352 0.128t-0.128 0.32v3.456h-3.424q-0.16 0.064-0.288 0.224t-0.064 0.448q0 0.16 0.128 0.288t0.352 0.16h3.424v3.424q0.064 0.256 0.224 0.384t0.448 0.096q0.16 0 0.32-0.16t0.128-0.32v-3.424h3.456q0.224-0.064 0.384-0.256t0.064-0.448q-0.096-0.16-0.192-0.288t-0.384-0.128v0zM28.352 26.624l-8.928-8.896q1.248-1.408 1.792-3.168 0.576-1.728 0.48-3.488t-0.896-3.456q-0.768-1.664-2.176-2.944-1.408-1.248-3.168-1.792-1.696-0.576-3.456-0.448t-3.424 0.864q-1.696 0.768-2.976 2.208-1.28 1.408-1.856 3.104-0.544 1.76-0.448 3.52t0.896 3.424 2.208 2.944q1.312 1.152 2.912 1.76 1.568 0.576 3.2 0.576t3.2-0.576q1.6-0.608 2.912-1.76l8.896 8.928q0.096 0.064 0.224 0.096t0.256 0.128q0.096 0 0.224-0.064t0.128-0.16q0.16-0.16 0.16-0.384t-0.16-0.416v0zM12.576 19.648q-1.664 0-3.136-0.608t-2.56-1.728-1.696-2.528q-0.608-1.44-0.608-3.136 0-1.664 0.608-3.104t1.696-2.56 2.56-1.696 3.136-0.64q1.664 0 3.104 0.64 1.472 0.608 2.56 1.696t1.696 2.56 0.64 3.104q0 1.696-0.64 3.136-0.608 1.472-1.696 2.528t-2.56 1.728q-1.44 0.608-3.104 0.608v0z"></path></svg>